#!OML:ASF H:\Terrain\Patient Classification 1\Animal2\Wednesday\Animal2.ASF
:FULLY-SPECIFIED
:DEGREES
297
root 20.4581 16.4488 -25.9347 8.61375 -29.883 -0.374922
lowerback 8.50627 -1.60619 1.52288
upperback 2.48354 -2.01678 0.178119
thorax -2.24059 -1.01437 -0.46343
lowerneck 10.0808 8.18037 19.0847
upperneck 10.3293 13.7176 -18.0954
head 3.97225 7.24562 -8.57677
rclavicle -7.47927e-015 2.48481e-015
rhumerus -9.19486 25.9174 -27.3619
rradius 51.8237
rwrist -21.7237
rhand -4.30593 25.8038
rfingers 7.12502
rthumb 21.4602 -3.02752
lclavicle -7.47927e-015 2.48481e-015
lhumerus -13.1917 -41.2767 23.4452
lradius 60.3378
lwrist 58.1036
lhand -8.32923 30.2261
lfingers 7.12502
lthumb 17.592 59.4502
rfemur -32.22 -4.44783 6.94269
rtibia 50.1438
rfoot -26.7201 -7.79516
rtoes -23.5656
lfemur -33.1392 2.92164 -3.55935
ltibia 46.3811
lfoot -22.509 -2.86377
ltoes -36.9454
298
root 20.451 16.4556 -25.9145 8.82252 -29.9018 -0.583225
lowerback 8.45511 -1.62244 1.63697
upperback 2.25198 -2.02276 0.278371
thorax -2.45196 -1.0191 -0.420644
lowerneck 9.66853 8.21976 19.0276
upperneck 10.9368 13.7506 -17.9333
head 4.21373 7.23892 -8.48736
rclavicle -6.39776e-014 -2.39287e-014
rhumerus -9.7169 26.2313 -26.7746
rradius 51.9104
rwrist -21.816
rhand -3.71771 26.2501
rfingers 7.12502
rthumb 22.025 -2.51581
lclavicle -6.39776e-014 -2.39287e-014
lhumerus -13.9018 -41.7377 23.1903
lradius 60.344
lwrist 58.4313
lhand -8.22349 29.5888
lfingers 7.12502
lthumb 17.6938 58.8038
rfemur -32.2071 -4.35829 7.11864
rtibia 50.0634
rfoot -26.8 -7.64697
rtoes -22.9336
lfemur -33.1449 2.89008 -3.36009
ltibia 46.3668
lfoot -22.5063 -3.31665
ltoes -35.2002
299
root 20.4453 16.4592 -25.8969 9.01912 -29.8451 -0.807026
lowerback 8.48351 -1.61414 1.80592
upperback 1.97587 -1.98869 0.369196
thorax -2.75495 -1.00513 -0.419358
lowerneck 9.45122 8.26013 19.089
upperneck 11.5779 13.8259 -17.7738
head 4.45189 7.2672 -8.42664
rclavicle 3.92041e-014 -2.24254e-014
rhumerus -10.6415 26.2225 -26.3028
rradius 52.096
rwrist -21.6025
rhand -3.42011 24.9483
rfingers 7.12502
rthumb 22.3107 -3.78369
lclavicle 3.92041e-014 -2.24254e-014
lhumerus -14.4363 -42.3545 22.8486
lradius 60.3042
lwrist 58.5696
lhand -8.10404 28.782
lfingers 7.12502
lthumb 17.8087 57.9866
rfemur -32.1768 -4.35606 7.33069
rtibia 49.9929
rfoot -26.8683 -7.48067
rtoes -22.2657
lfemur -33.1956 2.94607 -3.15828
ltibia 46.3639
lfoot -22.5323 -3.65943
ltoes -34.3307
300
root 20.44 16.4599 -25.8823 9.13504 -29.7449 -0.752947
lowerback 8.51018 -1.62137 1.77146
upperback 1.69179 -1.99534 0.363861
thorax -3.06302 -1.0105 -0.39879
lowerneck 9.29042 8.31274 19.1112
upperneck 12.0416 13.8916 -17.496
head 4.61638 7.29559 -8.3217
rclavicle -8.06382e-014 7.20594e-016
rhumerus -11.5999 26.2048 -25.8593
rradius 52.2759
rwrist -21.2817
rhand -3.32129 23.0631
rfingers 7.12502
rthumb 22.4056 -5.65748
lclavicle -8.06382e-014 7.20594e-016
lhumerus -15.0535 -43.0449 22.3864
lradius 60.4878
lwrist 58.4767
lhand -8.3763 28.047
lfingers 7.12502
lthumb 17.5467 57.2751
rfemur -32.2129 -4.43841 7.29372
rtibia 49.9564
rfoot -26.9275 -7.63548
rtoes -22.2719
lfemur -33.3499 2.94131 -3.22808
ltibia 46.3794
lfoot -22.6423 -3.40584
ltoes -35.2837
301
root 20.4353 16.4586 -25.8704 9.26064 -29.6465 -0.671472
lowerback 8.48307 -1.66418 1.67573
upperback 1.47902 -2.05687 0.378828
thorax -3.26579 -1.04154 -0.319564
lowerneck 9.07758 8.36459 19.0118
upperneck 12.2531 13.9211 -17.2762
head 4.70045 7.29931 -8.21601
rclavicle 2.77491e-014 -1.19644e-014
rhumerus -12.2151 26.1629 -25.3583
rradius 52.3549
rwrist -21.0217
rhand -3.20055 23.8052
rfingers 7.12502
rthumb 22.5215 -4.90136
lclavicle 2.77491e-014 -1.19644e-014
lhumerus -15.8823 -43.3767 22.0635
lradius 60.8359
lwrist 58.1669
lhand -8.84019 27.9608
lfingers 7.12502
lthumb 17.1003 57.2283
rfemur -32.2989 -4.47005 7.22101
rtibia 49.9418
rfoot -26.9007 -7.93405
rtoes -22.8028
lfemur -33.5436 2.87038 -3.30508
ltibia 46.4109
lfoot -22.683 -3.20901
ltoes -35.8722
